<svg xmlns="http://www.w3.org/2000/svg" width="22" height="24" viewBox="0 0 22 24">
  <defs>
    <style>
      .cls-1 {
        fill: #fff;
      }
    </style>
  </defs>
  <g id="_-e-List_nav" data-name="-e-List_nav" transform="translate(40.199 41.239) rotate(180)">
    <g id="Group_42" data-name="Group 42">
      <path id="Path_59" data-name="Path 59" class="cls-1" d="M21.238,17.239a3.041,3.041,0,1,0,3.038,3.041,3.043,3.043,0,0,0-3.038-3.041Zm0,5.122a2.076,2.076,0,1,1,2.074-2.076,2.077,2.077,0,0,1-2.074,2.076Zm0,0"/>
      <path id="Path_60" data-name="Path 60" class="cls-1" d="M21.238,26.2a3.041,3.041,0,1,0,3.038,3.041A3.043,3.043,0,0,0,21.238,26.2Zm0,5.117a2.076,2.076,0,1,1,2.074-2.076,2.077,2.077,0,0,1-2.074,2.076Zm0,0"/>
      <path id="Path_61" data-name="Path 61" class="cls-1" d="M21.238,35.157A3.041,3.041,0,1,0,24.276,38.2a3.043,3.043,0,0,0-3.038-3.041Zm0,5.122A2.076,2.076,0,1,1,23.312,38.2a2.077,2.077,0,0,1-2.074,2.076Zm0,0"/>
      <path id="Path_62" data-name="Path 62" class="cls-1" d="M40.2,20.119a.48.48,0,0,0-.482-.483H27.544a.482.482,0,0,0,0,.965H39.717a.48.48,0,0,0,.482-.482Zm0,0"/>
      <path id="Path_63" data-name="Path 63" class="cls-1" d="M27.378,28.759a.482.482,0,0,0,0,.965H39.552a.482.482,0,0,0,0-.965Zm0,0"/>
      <path id="Path_64" data-name="Path 64" class="cls-1" d="M40.034,38.2a.48.48,0,0,0-.482-.482H27.378a.482.482,0,0,0,0,.965H39.552a.48.48,0,0,0,.482-.483Zm0,0"/>
    </g>
  </g>
</svg>
