<svg xmlns="http://www.w3.org/2000/svg" xmlns:xlink="http://www.w3.org/1999/xlink" width="33" height="33" viewBox="0 0 33 33">
  <defs>
    <style>
      .cls-1 {
        fill: #fff;
      }

      .cls-2 {
        clip-path: url(#clip-path);
      }
    </style>
    <clipPath id="clip-path">
      <rect id="Rectangle_340" data-name="Rectangle 340" class="cls-1" width="33" height="33" transform="translate(0 -0.16)"/>
    </clipPath>
  </defs>
  <g id="Group_927" data-name="Group 927" transform="translate(0 0.16)">
    <g id="Group_926" data-name="Group 926" class="cls-2">
      <path id="Path_483" data-name="Path 483" class="cls-1" d="M17.854,16.417a16.328,16.328,0,0,0-2.288-.93c-.383-.109-.712-.219-1.007-.3a10.187,10.187,0,0,0-1.248-.274,3.244,3.244,0,0,1-.733-1.412A6.3,6.3,0,0,0,14.668,10.3a.942.942,0,0,0,.525-.23,2.051,2.051,0,0,0,.624-1.4A2.211,2.211,0,0,0,15.632,7.5a7,7,0,0,0,.153-1.379c0-3.207-2.3-5.287-5.856-5.287S4.072,2.909,4.072,6.116a5.97,5.97,0,0,0,.153,1.346,2.111,2.111,0,0,0-.208,1.2,2,2,0,0,0,.624,1.4.942.942,0,0,0,.525.23,6.352,6.352,0,0,0,2.08,3.207A2.949,2.949,0,0,1,6.48,14.95c-.733.131-1.182.241-1.193.241l-1.018.3a15.156,15.156,0,0,0-2.277.941A3.6,3.6,0,0,0,0,19.657v.985A2.42,2.42,0,0,0,1.292,22.8a18.418,18.418,0,0,0,8.626,1.8,18.345,18.345,0,0,0,8.626-1.8,2.42,2.42,0,0,0,1.292-2.156v-.985a3.634,3.634,0,0,0-1.981-3.24M9.929,1.562c3.164,0,5.134,1.741,5.134,4.554a5.872,5.872,0,0,1-.055.766L14.9,6.839a1.132,1.132,0,0,0-.536-.022c-.055-.219-.142-.558-.285-1.073l-.011-.022-.033-.066L14,5.591l-.055-.044-.055-.033-.066-.022L13.76,5.47h-.033A2.648,2.648,0,0,1,11.352,4.2l-.044-.055-.033-.055L11.2,4.047l-.055-.033L11.089,4h-.077l-.055.011-.077.022H10.87l-.055.044-.044.033C9.119,5.9,6.185,5.481,6.152,5.47l-.044.011H6.032L5.966,5.5,5.9,5.525l-.044.055-.044.044-.033.066-.022.055c-.142.514-.23.854-.285,1.073a1.184,1.184,0,0,0-.547.022l-.077.033a5.7,5.7,0,0,1-.055-.755c0-2.813,1.97-4.554,5.134-4.554M5.769,9.805a.352.352,0,0,0-.186-.241.327.327,0,0,0-.317,0l-.033.011A.216.216,0,0,1,5.1,9.51,1.309,1.309,0,0,1,4.74,8.6c-.055-.569.153-1,.383-1.062a.49.49,0,0,1,.394.066l.109.044a.4.4,0,0,0,.317-.033A.33.33,0,0,0,6.1,7.331c.011-.088.131-.591.274-1.106.164.011.361.022.613.022a6.1,6.1,0,0,0,4-1.335,3.392,3.392,0,0,0,2.463,1.27c.153.525.285,1.051.3,1.117a.407.407,0,0,0,.142.307.425.425,0,0,0,.328.044l.109-.044a.481.481,0,0,1,.394-.066c.23.066.438.493.394,1.062a1.411,1.411,0,0,1-.372.909.216.216,0,0,1-.131.066l-.044-.011a.287.287,0,0,0-.3,0,.316.316,0,0,0-.2.241,5.777,5.777,0,0,1-2.047,3.229,3.514,3.514,0,0,1-4.2,0A5.777,5.777,0,0,1,5.769,9.805m2.124,4.127a4.307,4.307,0,0,0,2.025.536,4.307,4.307,0,0,0,2.025-.536,3.543,3.543,0,0,0,.821,1.445,8.382,8.382,0,0,1-2.846,2.507,8.434,8.434,0,0,1-2.835-2.507,3.648,3.648,0,0,0,.81-1.445m-7.17,6.71v-.985A2.9,2.9,0,0,1,2.31,17.074a13.286,13.286,0,0,1,2.178-.887,7.988,7.988,0,0,1,.985-.3c.011-.011.372-.088.974-.2.471,1.073,2.4,2.364,3.109,2.813v5.375a17.641,17.641,0,0,1-7.925-1.719,1.712,1.712,0,0,1-.909-1.522m18.4,0a1.712,1.712,0,0,1-.909,1.522,17.7,17.7,0,0,1-7.936,1.719V18.508c.722-.449,2.693-1.751,3.12-2.846.328.066.657.131.963.219s.613.175.985.3a15.312,15.312,0,0,1,2.178.887,2.934,2.934,0,0,1,1.6,2.594Z" transform="translate(0 8.246)"/>
    </g>
  </g>
</svg>
