<svg xmlns="http://www.w3.org/2000/svg" xmlns:xlink="http://www.w3.org/1999/xlink" width="31" height="31" viewBox="0 0 31 31">
  <defs>
    <style>
      .cls-1 {
        fill: #fff;
      }

      .cls-2 {
        clip-path: url(#clip-path);
      }
    </style>
    <clipPath id="clip-path">
      <rect id="Rectangle_341" data-name="Rectangle 341" class="cls-1" width="31" height="31"/>
    </clipPath>
  </defs>
  <g id="Group_928" data-name="Group 928" class="cls-2">
    <path id="Path_484" data-name="Path 484" class="cls-1" d="M21.757.829H.336A.33.33,0,0,0,0,1.155v19.08a.332.332,0,0,0,.336.336H8.507a1.518,1.518,0,0,0-.387,1.435c.265.8.8.906.865.916h.041a.3.3,0,0,0,.163-.041,8.053,8.053,0,0,1,2.7-.855,6.285,6.285,0,0,1,1.272.051,2.593,2.593,0,0,0,1.974-.315l1.8-1.191h4.823a.339.339,0,0,0,.336-.336V1.155a.337.337,0,0,0-.336-.326M.672,1.49H21.421V4.177H.672ZM14.766,21.2a1.955,1.955,0,0,1-1.537.2,9.715,9.715,0,0,0-1.4-.051,8.173,8.173,0,0,0-2.8.865.787.787,0,0,1-.254-.4c-.183-.641.621-1.252,1.221-1.526a3.982,3.982,0,0,1,1.292-.377,1.229,1.229,0,0,0,.346-.071.328.328,0,0,0,.214-.2.282.282,0,0,0-.031-.3l-4.63-7.042a.624.624,0,0,1,.112-.845.617.617,0,0,1,.356-.112l.1.01a.509.509,0,0,1,.377.265L10.492,15.2a.344.344,0,0,0,.366.142.339.339,0,0,0,.244-.315.7.7,0,0,1,.936-.6.3.3,0,0,0,.265-.02.381.381,0,0,0,.183-.214.628.628,0,0,1,.275-.417.692.692,0,0,1,.865.081.348.348,0,0,0,.3.092.329.329,0,0,0,.244-.173.777.777,0,0,1,.224-.254.7.7,0,0,1,.946.173L17.442,16.9a2.12,2.12,0,0,1-.6,2.931Zm1.119-7.876-.051-.081a1.359,1.359,0,0,0-1.811-.285,1.39,1.39,0,0,0-.234.193,1.372,1.372,0,0,0-1.394.061,1.209,1.209,0,0,0-.448.509,1.327,1.327,0,0,0-.9.214,1.6,1.6,0,0,0-.356.336l-2-3.022A1.25,1.25,0,0,0,6.9,10.924a1.284,1.284,0,0,0-.275,1.75l1.649,2.5H5.393A1.366,1.366,0,0,1,4.02,13.814v-4.5A1.372,1.372,0,0,1,5.393,7.952H16.709a1.357,1.357,0,0,1,1.364,1.364v4.5a1.367,1.367,0,0,1-1,1.313ZM21.421,19.9H17.778a3,3,0,0,0,.631-1.272,2.775,2.775,0,0,0-.417-2.1l-.539-.834a2.029,2.029,0,0,0,1.292-1.883v-4.5a2.033,2.033,0,0,0-2.035-2.025H5.393A2.035,2.035,0,0,0,3.348,9.316v4.5a2.039,2.039,0,0,0,2.045,2.045H8.721l2.259,3.419a4.855,4.855,0,0,0-1.252.407A3.349,3.349,0,0,0,9.3,19.9H.672V4.849H21.421Z" transform="translate(0 7.607)"/>
  </g>
</svg>
